PathFileType  4	(X/Y/Z) C:\Users\antoi\Documents\MyRepositories\mobilecap\ResultsAnalysis
DataRate	CameraRate	NumFrames	NumMarkers	Units	OrigDataRate	OrigDataStartFrame	OrigNumFrames
100.0	100.0	5	55	mm	100.0	439	501
Frame#	Time	r_knee			r_shank_antsup			r_ankle			r_calc			r_5meta			r_toe			L_knee			L_shank_antsup			L_ankle			L_calc			L_5meta			L_toe			r_mknee			r_mankle			L_mknee			L_mankle			r_sh2			r_sh3			r_sh4			L_sh2			L_sh3			r_thigh1			r_thigh2			r_thigh3			r_thigh4			r_thigh5			L_thigh1			L_thigh2			L_thigh3			L_thigh4			r.ASIS			r.PSIS			L.ASIS			L.PSIS			C7			R_Shoulder			L_Shoulder			R_Sternum			L_Sternum			R_humerus			R_elbow_med			R_elbow_lat			R_forearm			R_wrist_radius			R_wrist_ulna			L_humerus			L_elbow_med			L_elbow_lat			L_forearm			L_wrist_radius			L_wrist_ulna			R_HJC			L_HJC			R_HJC_reg			L_HJC_reg			
		X1	Y1	Z1	X2	Y2	Z2	X3	Y3	Z3	X4	Y4	Z4	X5	Y5	Z5	X6	Y6	Z6	X7	Y7	Z7	X8	Y8	Z8	X9	Y9	Z9	X10	Y10	Z10	X11	Y11	Z11	X12	Y12	Z12	X13	Y13	Z13	X14	Y14	Z14	X15	Y15	Z15	X16	Y16	Z16	X17	Y17	Z17	X18	Y18	Z18	X19	Y19	Z19	X20	Y20	Z20	X21	Y21	Z21	X22	Y22	Z22	X23	Y23	Z23	X24	Y24	Z24	X25	Y25	Z25	X26	Y26	Z26	X27	Y27	Z27	X28	Y28	Z28	X29	Y29	Z29	X30	Y30	Z30	X31	Y31	Z31	X32	Y32	Z32	X33	Y33	Z33	X34	Y34	Z34	X35	Y35	Z35	X36	Y36	Z36	X37	Y37	Z37	X38	Y38	Z38	X39	Y39	Z39	X40	Y40	Z40	X41	Y41	Z41	X42	Y42	Z42	X43	Y43	Z43	X44	Y44	Z44	X45	Y45	Z45	X46	Y46	Z46	X47	Y47	Z47	X48	Y48	Z48	X49	Y49	Z49	X50	Y50	Z50	X51	Y51	Z51	X52	Y52	Z52	X53	Y53	Z53	X54	Y54	Z54	X55	Y55	Z55	

439	4.38000000	-251.87413	475.65815	-420.32561	-229.25072	421.86068	-413.24677	-256.21318	87.01220	-388.15811	-308.11206	54.07187	-430.02327	-147.35364	42.61650	-353.99850	-109.00759	60.30046	-406.86267	-225.54313	473.10350	-773.82338	-197.16260	392.33768	-770.44580	-251.80637	94.77646	-815.87763	-308.63698	50.69338	-779.20891	-147.62195	44.92154	-846.17870	-101.12021	59.21294	-789.80372	-245.11954	449.03530	-548.91721	-239.86649	96.72093	-465.87825	-233.50138	447.81456	-646.56343	-240.20556	97.66594	-735.63246	-238.60604	311.60499	-389.32500	-301.24798	433.57997	-394.03270	-319.21588	317.24675	-378.60668	-273.89443	417.27892	-814.40710	-281.98255	296.69349	-837.29737	-155.70032	721.21651	-396.84054	-166.52867	607.78358	-405.54601	-230.28445	589.05227	-396.80098	-268.58888	727.64836	-408.96925	-275.11445	611.45905	-420.54321	-131.81209	747.22567	-791.76527	-138.95980	606.77458	-772.21127	-242.74021	748.48947	-808.24933	-252.19293	613.71553	-780.65824	-96.02066	918.44366	-479.64468	-303.13328	944.23417	-565.14019	-86.33783	924.04217	-704.21909	-297.56076	947.20982	-644.12125	-253.12348	1384.55795	-598.08911	-203.70346	1360.09214	-454.74302	-209.34010	1357.53058	-735.94591	-123.72960	1331.71629	-573.16986	-124.38390	1330.58529	-612.75060	-178.65543	1251.93432	-387.74940	-246.96299	1042.45057	-393.44652	-226.79195	1059.47987	-336.18744	-169.92090	999.02236	-293.79975	-129.45233	861.51844	-257.62257	-165.29110	859.55006	-243.00083	-203.47159	1259.44719	-812.58194	-238.16564	1037.90705	-800.70531	-228.18317	1063.09895	-859.51272	-170.71673	982.99589	-901.18117	-125.23154	862.84994	-920.64801	-162.43281	857.83201	-937.39766	-176.05041	829.35261	-493.83252	-166.21358	837.11012	-700.96145	-165.20188	846.87886	-518.19456	-154.76462	852.45214	-666.12491	
440	4.39000000	-251.86692	475.63952	-420.27784	-229.21451	421.82812	-413.19321	-256.24114	86.96225	-388.18885	-308.05599	54.11130	-429.99767	-147.33591	42.59890	-353.95912	-108.99004	60.30378	-406.82392	-225.48294	473.13950	-773.80335	-197.08801	392.30904	-770.35374	-251.78802	94.78995	-815.80559	-308.59668	50.72733	-779.15513	-147.61174	44.94104	-846.16788	-101.13514	59.23086	-789.80484	-245.15268	448.85802	-548.65006	-239.85971	96.74792	-465.88277	-233.34328	447.52926	-646.54471	-240.18827	97.68408	-735.63028	-238.58315	311.58822	-389.31587	-302.28992	432.73823	-394.19087	-319.39000	317.02316	-378.67487	-273.84973	417.29289	-814.35639	-281.95933	296.72876	-837.25615	-155.77243	721.18007	-396.74341	-166.51479	607.77732	-405.47755	-230.20852	589.09059	-396.73657	-268.56352	727.62526	-408.94672	-275.09999	611.43034	-420.49591	-131.79360	747.22963	-791.74729	-138.90989	606.80646	-772.20231	-242.69868	748.52053	-808.23256	-252.14808	613.70432	-780.49127	-95.95411	918.41587	-479.51200	-303.09389	944.23591	-565.07949	-86.26014	924.03279	-704.14962	-297.55750	947.21273	-644.08481	-253.02995	1384.56972	-598.06503	-203.65721	1360.09144	-454.68616	-209.26470	1357.50207	-735.90959	-123.64429	1331.65596	-573.08425	-124.30661	1330.52260	-612.77362	-178.64561	1251.93896	-387.74101	-246.83115	1042.48613	-393.46274	-226.78710	1059.46661	-336.17281	-169.92078	998.99087	-293.76757	-129.49130	861.50873	-257.60300	-165.34716	859.51840	-243.02177	-203.43185	1259.42309	-812.52242	-238.13648	1037.90738	-800.69315	-228.14958	1063.09282	-859.43561	-170.69830	982.97778	-901.13268	-125.22053	862.84550	-920.63983	-162.44914	857.76215	-937.24690	-176.02466	829.33786	-493.76034	-166.15879	837.10541	-700.88751	-165.11899	846.84879	-518.03945	-154.74933	852.42436	-666.01692	
441	4.40000000	-251.85706	475.62635	-420.23858	-229.18185	421.82279	-413.15778	-256.27149	86.95905	-388.21259	-308.02637	54.12826	-429.98788	-147.30515	42.59749	-353.90911	-108.99217	60.29833	-406.80762	-225.42254	473.15102	-773.78648	-197.02175	392.27297	-770.27868	-251.78813	94.81084	-815.79437	-308.55903	50.73973	-779.10369	-147.60366	44.95607	-846.15829	-101.15569	59.21605	-789.79792	-245.19459	448.74064	-548.47319	-239.85541	96.78230	-465.97668	-233.24221	447.34790	-646.51811	-240.22771	97.63719	-735.64256	-238.58396	311.59002	-389.32294	-302.22407	432.79536	-394.11334	-319.40653	316.95665	-378.64957	-273.82712	417.32524	-814.32473	-281.92163	296.72943	-837.16890	-155.84148	721.08775	-396.64525	-166.47440	607.72242	-405.38643	-230.15350	589.09039	-396.70729	-268.53393	727.61996	-408.91265	-275.05161	611.44668	-420.42589	-131.77213	747.24910	-791.73568	-138.85368	606.83024	-772.17672	-242.65708	748.54298	-808.21547	-252.11617	613.72610	-780.46056	-95.78702	918.45097	-479.24423	-302.99996	944.24294	-565.01389	-86.18578	924.02730	-704.09059	-297.47075	947.20250	-644.01581	-252.93680	1384.58674	-598.06846	-203.60408	1360.11380	-454.65716	-209.18298	1357.46756	-735.87154	-123.56924	1331.59506	-572.97318	-124.23400	1330.44995	-612.80568	-178.61586	1251.94304	-387.68156	-246.75106	1042.55222	-393.48103	-226.78101	1059.45113	-336.17309	-169.93382	998.94047	-293.76357	-129.53950	861.50358	-257.55323	-165.42870	859.47320	-243.04426	-203.37494	1259.39872	-812.44376	-238.06200	1037.88372	-800.61644	-228.11531	1063.08655	-859.37845	-170.65985	982.94826	-901.05100	-125.20905	862.82789	-920.63755	-162.44314	857.70326	-937.10797	-175.91970	829.37412	-493.61534	-166.03512	837.08720	-700.74365	-165.00237	846.80886	-517.78957	-154.63618	852.35750	-665.90305	
442	4.41000000	-251.84266	475.61577	-420.22581	-229.14200	421.85470	-413.14377	-256.27877	86.98771	-388.20097	-308.02788	54.10215	-429.97525	-147.31598	42.57854	-353.95467	-108.99046	60.30196	-406.81576	-225.37134	473.14449	-773.77174	-196.97993	392.26522	-770.25192	-251.80103	94.84614	-815.83774	-308.55091	50.74458	-779.09495	-147.60395	44.96159	-846.15401	-101.15980	59.19403	-789.80211	-245.18678	448.74865	-548.47933	-239.85124	96.79397	-466.06998	-233.28800	447.38201	-646.38520	-240.21682	97.66090	-735.64080	-238.61629	311.61428	-389.34193	-300.98344	433.80816	-393.82337	-319.33825	317.00104	-378.59709	-273.80035	417.37077	-814.27653	-281.87681	296.68267	-837.05393	-155.79231	720.96079	-396.61241	-166.43865	607.68405	-405.29970	-230.16508	589.07208	-396.70274	-268.48047	727.62379	-408.80461	-275.01488	611.45988	-420.37577	-131.76456	747.24177	-791.74054	-138.77623	606.81579	-772.13659	-242.60558	748.54348	-808.19484	-252.07067	613.73149	-780.46397	-95.62859	918.49316	-479.01539	-302.89466	944.25461	-564.97471	-86.12051	924.03096	-704.06227	-297.33723	947.19221	-643.94508	-252.88304	1384.57603	-598.07146	-203.54216	1360.12230	-454.65261	-209.10893	1357.43837	-735.84157	-123.49194	1331.55730	-572.87395	-124.16599	1330.38364	-612.84090	-178.56449	1251.93328	-387.61801	-246.75641	1042.51623	-393.46381	-226.76153	1059.45003	-336.16728	-169.95242	998.90612	-293.77095	-129.57825	861.48585	-257.47515	-165.50961	859.44137	-243.06306	-203.31591	1259.37937	-812.39677	-237.96621	1037.83314	-800.50098	-228.07558	1063.05550	-859.37557	-170.62533	982.90682	-900.96928	-125.19289	862.79788	-920.63198	-162.43661	857.65187	-937.02372	-175.80028	829.41422	-493.49608	-165.90466	837.07577	-700.62579	-164.92111	846.78362	-517.60789	-154.48888	852.29795	-665.84725	
443	4.42000000	-251.82042	475.61304	-420.22726	-229.13975	421.87353	-413.15378	-256.22834	87.01368	-388.12314	-308.01852	54.09636	-429.98402	-147.35737	42.54471	-354.04718	-108.98102	60.29902	-406.83257	-225.32781	473.13040	-773.74900	-196.95052	392.27971	-770.25613	-251.79447	94.85430	-815.83543	-308.55939	50.75100	-779.13362	-147.60511	44.94843	-846.15773	-101.13725	59.19731	-789.82250	-245.09300	448.82986	-548.59304	-239.84424	96.75727	-466.06352	-233.34061	447.47161	-646.29433	-240.10951	97.77458	-735.58063	-238.61826	311.61934	-389.33511	-300.31966	434.34866	-393.69904	-319.15853	317.24673	-378.51845	-273.73178	417.38893	-814.22085	-281.85392	296.65389	-836.99286	-155.57837	720.86413	-396.61472	-166.40421	607.70887	-405.24426	-230.15301	589.04624	-396.68460	-268.42578	727.60389	-408.65862	-274.99189	611.44347	-420.34979	-131.76346	747.18074	-791.70033	-138.69498	606.76716	-772.10217	-242.53757	748.51989	-808.17069	-252.01388	613.69964	-780.44167	-95.56202	918.50629	-478.94605	-302.83010	944.28635	-564.98128	-86.06071	924.03705	-704.05591	-297.24425	947.17814	-643.90318	-252.84322	1384.54126	-598.11162	-203.47435	1360.10859	-454.63629	-209.04447	1357.41769	-735.82241	-123.42113	1331.53619	-572.83451	-124.10005	1330.33371	-612.86208	-178.50848	1251.92018	-387.59368	-246.77251	1042.50541	-393.44250	-226.74870	1059.46769	-336.15339	-169.95894	998.91104	-293.76836	-129.61045	861.45943	-257.43567	-165.55699	859.43625	-243.06706	-203.26419	1259.35062	-812.38977	-237.91062	1037.78109	-800.43765	-228.02134	1062.99044	-859.40315	-170.60687	982.85503	-900.93267	-125.17904	862.75634	-920.62593	-162.43107	857.60674	-936.99278	-175.73638	829.43377	-493.45670	-165.82892	837.07431	-700.58662	-164.90884	846.83510	-517.53914	-154.41403	852.26823	-665.81837	
